<?xml version="1.0" encoding="utf-8"?>
<!-- Generator: Adobe Illustrator 21.0.0, SVG Export Plug-In . SVG Version: 6.00 Build 0)  -->
<svg version="1.1" id="Layer_1" xmlns="http://www.w3.org/2000/svg" xmlns:xlink="http://www.w3.org/1999/xlink" x="0px" y="0px"
	 viewBox="0 0 5000 5000" style="enable-background:new 0 0 5000 5000;" xml:space="preserve">
<style type="text/css">
	.st0{display:none;fill:#FFFFFF;}
	.st1{fill:#F3FCFF;}
	.st2{fill:#C5EDF9;}
	.st3{fill:#A2DFFF;}
	.st4{fill:#0868AF;}
	.st5{fill:#FFFFFF;}
	.st6{fill:#6EBDFF;}
	.st7{fill:#549CEA;}
	.st8{fill:#8AE9FF;}
</style>
<rect class="st0" width="5000" height="5000"/>
<g>
	<path class="st1" d="M2500,725.3c-987.5,0-1787.9,800.5-1787.9,1787.9c0,511.8,215.1,973.4,559.8,1299.3h2456.4
		c344.7-325.9,559.8-787.5,559.8-1299.3C4287.9,1525.7,3487.5,725.3,2500,725.3z"/>
	<g>
		<g>
			<path class="st2" d="M3497.4,1644.2h-377.2c-4.1,0-7.5,3.4-7.5,7.5v260.9c0,4.1,3.4,7.5,7.5,7.5h377.2c4.1,0,7.5-3.4,7.5-7.5
				v-260.9C3504.9,1647.5,3501.6,1644.2,3497.4,1644.2z M3489.9,1905h-362.2v-245.9h362.2V1905z"/>
			<path class="st2" d="M3448.7,1686.4H3169c-4.1,0-7.5,3.4-7.5,7.5v176.4c0,4.1,3.4,7.5,7.5,7.5h279.6c4.1,0,7.5-3.4,7.5-7.5
				v-176.4C3456.2,1689.8,3452.8,1686.4,3448.7,1686.4z M3441.2,1862.8h-264.6v-161.4h264.6V1862.8z"/>
			<path class="st2" d="M3284.3,1738.2c-2.4-2.2-6-2.6-8.8-1l-107.9,61.8c-3.6,2.1-4.8,6.6-2.8,10.2s6.6,4.8,10.2,2.8l103.2-59.1
				l129.5,118c1.4,1.3,3.2,2,5,2c2,0,4.1-0.8,5.5-2.4c2.8-3.1,2.6-7.8-0.5-10.6L3284.3,1738.2z"/>
			<path class="st2" d="M3450.8,1807.5l-51.3-38.8c-2.8-2.1-6.7-2-9.4,0.3l-40.8,34.9c-3.1,2.7-3.5,7.4-0.8,10.6
				c2.7,3.1,7.4,3.5,10.6,0.8l36.2-30.9l46.5,35.2c1.4,1,2.9,1.5,4.5,1.5c2.3,0,4.5-1,6-3C3454.8,1814.7,3454.1,1810,3450.8,1807.5z
				"/>
			<path class="st2" d="M3355.9,1723.8c-8.7,0-15.7,7.1-15.7,15.7s7.1,15.7,15.7,15.7s15.7-7.1,15.7-15.7
				S3364.5,1723.8,3355.9,1723.8z M3355.9,1740.2c-0.4,0-0.7-0.3-0.7-0.7s0.3-0.7,0.7-0.7s0.7,0.3,0.7,0.7
				S3356.3,1740.2,3355.9,1740.2z"/>
		</g>
		<g>
			<g>
				<g>
					<g>
						<path class="st2" d="M1614.8,1638.7c-4.1,0-7.5,3.4-7.5,7.5v101c0,4.1,3.4,7.5,7.5,7.5s7.5-3.4,7.5-7.5v-101
							C1622.3,1642,1618.9,1638.7,1614.8,1638.7z"/>
						<path class="st2" d="M1614.8,1531.6c-2.4,0-4.7,1.1-6.1,3.1c-1.3,1.7-31,43.1-31,75.1c0,28.2,23.1,41.6,35.2,44.8
							c0.6,0.2,1.2,0.2,1.9,0.2c0.6,0,1.3-0.1,1.9-0.2c12.2-3.2,35.2-16.6,35.2-44.8c0-31.9-29.8-73.3-31-75.1
							C1619.5,1532.8,1617.2,1531.6,1614.8,1531.6z M1636.9,1609.8c0,19.9-16.4,27.6-22.1,29.7c-5.7-2.1-22.1-9.8-22.1-29.7
							c0-19.1,13.8-43.9,22.1-57.1c2.4,3.8,5.3,8.7,8.2,14.1C1632.1,1583.9,1636.9,1598.8,1636.9,1609.8z"/>
						<g>
							<g>
								<path class="st2" d="M1707.1,1637.7c-1.7,0.3-41.5,6.8-59.6,24.8c-16.3,16.3-10.8,37.4-5.5,46.2c0.6,1.1,1.6,2,2.7,2.7
									c4.4,2.6,11.9,5.3,20.3,5.3c8.4,0,17.8-2.7,25.9-10.8c18-18,24.5-57.9,24.8-59.6c0.4-2.4-0.4-4.8-2.1-6.5
									C1711.9,1638.1,1709.5,1637.3,1707.1,1637.7z M1680.3,1695.3c-9.9,9.9-21.8,6-26.3,4.1c-2-4.5-5.8-16.3,4.1-26.2
									c9-9,27.5-15.1,40.5-18.3C1695.4,1667.8,1689.3,1686.2,1680.3,1695.3z"/>
								<path class="st2" d="M1643.1,1699.7l-33.7,33.7c-2.9,2.9-2.9,7.7,0,10.6c1.5,1.5,3.4,2.2,5.3,2.2s3.8-0.7,5.3-2.2l33.7-33.7
									c2.9-2.9,2.9-7.7,0-10.6C1650.8,1696.7,1646.1,1696.7,1643.1,1699.7z"/>
							</g>
							<g>
								<path class="st2" d="M1522.5,1637.7c-2.4-0.4-4.8,0.4-6.5,2.1c-1.7,1.7-2.5,4.1-2.1,6.5c0.3,1.7,6.8,41.5,24.8,59.6
									c8.2,8.2,17.5,10.8,25.9,10.8c8.4,0,15.9-2.7,20.3-5.3c1.1-0.6,2-1.6,2.7-2.7c5.2-8.9,10.8-29.9-5.5-46.2
									C1564,1644.5,1524.2,1638,1522.5,1637.7z M1575.5,1699.4c-4.5,2-16.3,5.8-26.2-4.1c-9-9-15.1-27.5-18.3-40.5
									c13,3.2,31.5,9.3,40.5,18.3C1581.3,1683,1577.5,1695,1575.5,1699.4z"/>
								<path class="st2" d="M1586.5,1699.7c-2.9-2.9-7.7-2.9-10.6,0c-2.9,2.9-2.9,7.7,0,10.6l33.7,33.7c1.5,1.5,3.4,2.2,5.3,2.2
									s3.8-0.7,5.3-2.2c2.9-2.9,2.9-7.7,0-10.6L1586.5,1699.7z"/>
							</g>
						</g>
					</g>
					<g>
						<g>
							<path class="st2" d="M1687.4,1757.6c-4.1-0.8-8,1.9-8.8,6l-19.3,101h-89.1l-19.3-101c-0.8-4.1-4.7-6.7-8.8-6
								c-4.1,0.8-6.7,4.7-6,8.8l20.4,107.1c0.7,3.5,3.8,6.1,7.4,6.1h101.5c3.6,0,6.7-2.6,7.4-6.1l20.4-107.1
								C1694.1,1762.3,1691.5,1758.4,1687.4,1757.6z"/>
						</g>
					</g>
					<path class="st2" d="M1694.5,1741.8h-159.4c-4.1,0-7.5,3.4-7.5,7.5v7.1c0,9,7.4,16.4,16.4,16.4c4.1,0,7.5-3.4,7.5-7.5
						s-3.4-7.5-7.5-7.5c-0.6,0-1.2-0.4-1.4-1H1687c-0.2,0.6-0.7,1-1.4,1c-4.1,0-7.5,3.4-7.5,7.5s3.4,7.5,7.5,7.5
						c9,0,16.4-7.4,16.4-16.4v-7.1C1702,1745.1,1698.6,1741.8,1694.5,1741.8z"/>
				</g>
			</g>
			<g>
				<path class="st2" d="M1423.4,1897.4h-32.7c-4.1,0-7.5,3.4-7.5,7.5v57.9c0,4.1,3.4,7.5,7.5,7.5h32.7c4.1,0,7.5-3.4,7.5-7.5v-57.9
					C1430.9,1900.8,1427.6,1897.4,1423.4,1897.4z M1415.9,1955.3h-17.7v-42.9h17.7V1955.3z"/>
				<path class="st2" d="M1728.1,1897.4h-32.7c-4.1,0-7.5,3.4-7.5,7.5v57.9c0,4.1,3.4,7.5,7.5,7.5h32.7c4.1,0,7.5-3.4,7.5-7.5v-57.9
					C1735.6,1900.8,1732.2,1897.4,1728.1,1897.4z M1720.6,1955.3h-17.7v-42.9h17.7V1955.3z"/>
			</g>
			<path class="st2" d="M1776.1,1864.5h-433.3c-4.1,0-7.5,3.4-7.5,7.5v32.9c0,4.1,3.4,7.5,7.5,7.5h433.3c4.1,0,7.5-3.4,7.5-7.5V1872
				C1783.6,1867.9,1780.2,1864.5,1776.1,1864.5z M1768.6,1897.4h-418.3v-17.9h418.3V1897.4z"/>
		</g>
		<g>
			<rect x="2357.2" y="2549.3" class="st3" width="242" height="64"/>
			<path class="st4" d="M2599.2,2541.8h-242c-4.1,0-7.5,3.4-7.5,7.5v64c0,4.1,3.4,7.5,7.5,7.5h242c4.1,0,7.5-3.4,7.5-7.5v-64
				C2606.7,2545.2,2603.4,2541.8,2599.2,2541.8z M2591.7,2605.8h-227v-49h227V2605.8z"/>
		</g>
		<g>
			<path class="st5" d="M2568.4,2115.8L2485,2136h-77.3l-35.3,51.3l56,28l29.3-46.7l50.6-4.9c2.7-0.3,5.2-1,7.6-2.2l58.4-28.9
				c4.5-2,6.6-7.2,4.7-11.8C2577.2,2116.8,2572.7,2114.6,2568.4,2115.8z"/>
			<path class="st4" d="M2566.6,2108.6l-82.4,19.9h-76.4c-2.5,0-4.8,1.2-6.2,3.2l-35.3,51.3c-1.2,1.8-1.6,4-1.1,6.1s2,3.9,3.9,4.8
				l56,28c1.1,0.5,2.2,0.8,3.3,0.8c2.5,0,4.9-1.3,6.4-3.5l27.4-43.6l47-4.6c3.6-0.3,7-1.3,10.2-2.9l58.2-28.8c3.9-1.8,7-4.9,8.6-9
				c1.6-4.1,1.5-8.6-0.2-12.6C2582.6,2110.5,2574.4,2106.5,2566.6,2108.6z M2572.1,2125c-0.1,0.3-0.3,0.6-0.8,0.8
				c-0.1,0.1-0.2,0.1-0.4,0.2l-58.4,28.9c-1.6,0.8-3.3,1.3-5,1.4l-50.6,4.9c-2.3,0.2-4.4,1.5-5.6,3.5l-25.7,40.9l-42.2-21.1l28.2-41
				h73.4c0.6,0,1.2-0.1,1.8-0.2l83.4-20.1c0.1,0,0.2,0,0.2-0.1c0.7-0.2,1.4,0.2,1.7,0.8C2572.3,2124.3,2572.2,2124.7,2572.1,2125z"
				/>
		</g>
		<g>
			<path class="st5" d="M2484,2117.3h-50.7c-14.7,0-23.8,16.1-31.9,27.4l36.6-0.8h46c7.4,0,13.3-6,13.3-13.3v0
				C2497.3,2123.3,2491.4,2117.3,2484,2117.3z"/>
			<path class="st4" d="M2484,2109.8h-50.7c-16.8,0-26.9,14.6-35,26.3c-1,1.5-2,2.9-3,4.3c-2.4,3.4-1.6,8.1,1.7,10.5
				c1.3,0.9,2.9,1.4,4.4,1.4c2.3,0,4.6-1.1,6.1-3.1c1-1.4,2.1-2.9,3.1-4.5c6.4-9.3,13.7-19.8,22.7-19.8h50.7c3.2,0,5.8,2.6,5.8,5.8
				c0,3.2-2.6,5.8-5.8,5.8h-46c-4.1,0-7.5,3.4-7.5,7.5s3.4,7.5,7.5,7.5h46c11.5,0,20.8-9.3,20.8-20.8
				C2504.8,2119.1,2495.5,2109.8,2484,2109.8z"/>
		</g>
		<g>
			<rect x="556.5" y="2613.3" class="st2" width="2919.3" height="87.6"/>
			<path class="st4" d="M3475.8,2605.8H556.5c-4.1,0-7.5,3.4-7.5,7.5v87.6c0,4.1,3.4,7.5,7.5,7.5h2919.3c4.1,0,7.5-3.4,7.5-7.5
				v-87.6C3483.3,2609.2,3479.9,2605.8,3475.8,2605.8z M3468.3,2693.4H564v-72.6h2904.3V2693.4z"/>
		</g>
		<g>
			<rect x="619.2" y="2700.9" class="st2" width="2793.9" height="1111.6"/>
			<path class="st4" d="M3413.1,2693.4H619.2c-4.1,0-7.5,3.4-7.5,7.5v1111.6c0,4.1,3.4,7.5,7.5,7.5h2793.9c4.1,0,7.5-3.4,7.5-7.5
				V2700.9C3420.6,2696.7,3417.2,2693.4,3413.1,2693.4z M3405.6,3805H626.7V2708.4h2778.9V3805z"/>
		</g>
		<g>
			<rect x="619.2" y="2700.9" class="st3" width="2793.9" height="109.2"/>
			<polygon class="st4" points="611.7,2810 626.7,2810 626.7,2708.4 3405.6,2708.4 3405.6,2810 3420.6,2810 3420.6,2693.4 
				611.7,2693.4 			"/>
		</g>
		<g>
			<path class="st3" d="M4677.1,4046.5H1818.2c-4.1,0-7.5,3.4-7.5,7.5s3.4,7.5,7.5,7.5h2858.9c4.1,0,7.5-3.4,7.5-7.5
				S4681.2,4046.5,4677.1,4046.5z"/>
			<path class="st3" d="M4397.5,4148.5H4110c-4.1,0-7.5,3.4-7.5,7.5s3.4,7.5,7.5,7.5h287.4c4.1,0,7.5-3.4,7.5-7.5
				S4401.6,4148.5,4397.5,4148.5z"/>
			<path class="st3" d="M4009.1,4148.5h-104.9c-4.1,0-7.5,3.4-7.5,7.5s3.4,7.5,7.5,7.5h104.9c4.1,0,7.5-3.4,7.5-7.5
				S4013.2,4148.5,4009.1,4148.5z"/>
			<path class="st3" d="M3795.4,4148.5h-699.2c-4.1,0-7.5,3.4-7.5,7.5s3.4,7.5,7.5,7.5h699.2c4.1,0,7.5-3.4,7.5-7.5
				S3799.6,4148.5,3795.4,4148.5z"/>
			<path class="st3" d="M2995.3,4148.5h-773c-4.1,0-7.5,3.4-7.5,7.5s3.4,7.5,7.5,7.5h773c4.1,0,7.5-3.4,7.5-7.5
				S2999.4,4148.5,2995.3,4148.5z"/>
			<g>
				<path class="st3" d="M3958.6,4250.5h-322.4c-4.1,0-7.5,3.4-7.5,7.5s3.4,7.5,7.5,7.5h322.4c4.1,0,7.5-3.4,7.5-7.5
					S3962.7,4250.5,3958.6,4250.5z"/>
				<path class="st3" d="M3515.8,4250.5h-807.9c-4.1,0-7.5,3.4-7.5,7.5s3.4,7.5,7.5,7.5h807.9c4.1,0,7.5-3.4,7.5-7.5
					S3519.9,4250.5,3515.8,4250.5z"/>
				<path class="st3" d="M2610.7,4250.5h-104.9c-4.1,0-7.5,3.4-7.5,7.5s3.4,7.5,7.5,7.5h104.9c4.1,0,7.5-3.4,7.5-7.5
					S2614.9,4250.5,2610.7,4250.5z"/>
			</g>
		</g>
		<g>
			<g>
				<g>
					<rect x="2168.2" y="3931.8" class="st6" width="35" height="61"/>
					<path class="st4" d="M2203.2,3924.3h-35c-4.1,0-7.5,3.4-7.5,7.5v61c0,4.1,3.4,7.5,7.5,7.5h35c4.1,0,7.5-3.4,7.5-7.5v-61
						C2210.7,3927.6,2207.3,3924.3,2203.2,3924.3z M2195.7,3985.3h-20v-46h20V3985.3z"/>
				</g>
				<g>
					<rect x="2257.1" y="3931.8" class="st7" width="35" height="61"/>
					<path class="st4" d="M2292.1,3924.3h-35c-4.1,0-7.5,3.4-7.5,7.5v61c0,4.1,3.4,7.5,7.5,7.5h35c4.1,0,7.5-3.4,7.5-7.5v-61
						C2299.6,3927.6,2296.3,3924.3,2292.1,3924.3z M2284.6,3985.3h-20v-46h20V3985.3z"/>
				</g>
				<g>
					<path class="st4" d="M2421.4,3036.6l-43.3-1.5c-39.5-1.4-72.8,29.6-74.2,69.2l-14.1,401.4c-0.1,2,0.7,3.9,2,5.4
						c1.4,1.5,3.2,2.3,5.2,2.4l171.7,6c0.1,0,0.2,0,0.3,0c4,0,7.3-3.2,7.5-7.2l14.1-401.4c0.7-19.2-6.2-37.4-19.2-51.4
						C2458.3,3045.4,2440.6,3037.3,2421.4,3036.6z M2475.6,3110.3l-13.8,393.9l-156.7-5.5l13.8-393.9c1.1-31.3,27.5-55.8,58.7-54.7
						l43.3,1.5c15.1,0.5,29.2,6.9,39.5,18C2470.7,3080.7,2476.1,3095.1,2475.6,3110.3z"/>
					<g>
						<path class="st2" d="M2421.4,3037.1l-43.3-1.5c-39.3-1.4-72.3,29.4-73.7,68.7c-0.1,3.9,2.9,7.1,6.8,7.3
							c3.9,0.1,7.1-2.9,7.3-6.8c1.1-31.5,27.7-56.3,59.2-55.2l43.3,1.5c31.5,1.1,56.3,27.7,55.2,59.2c-0.1,3.9,2.9,7.1,6.8,7.3
							c3.9,0.1,7.1-2.9,7.3-6.8C2491.5,3071.5,2460.7,3038.4,2421.4,3037.1z"/>
						<path class="st4" d="M2421.9,3022.1l-43.3-1.5c-1,0-2-0.1-3.1-0.1h0c-22.4,0-43.6,8.6-59.8,24.2
							c-16.2,15.6-25.6,36.6-26.4,59.1c-0.2,5.9,1.9,11.5,5.9,15.8c4,4.3,9.5,6.8,15.3,7c0.3,0,0.5,0,0.8,0c11.9,0,21.6-9.3,22-21.2
							c0.4-11,5-21.3,12.9-28.9c7.9-7.6,18.3-11.8,29.3-11.8c0.5,0,1,0,1.5,0l43.3,1.5c11.2,0.4,21.7,5.2,29.4,13.4
							c7.7,8.3,11.7,19,11.3,30.3c-0.4,12.1,9.1,22.4,21.2,22.8c0.3,0,0.5,0,0.8,0c11.9,0,21.6-9.3,22-21.2c0.8-23-7.4-45-23.1-61.8
							S2444.9,3022.9,2421.9,3022.1z M2490.1,3110.8c-0.1,3.8-3.2,6.8-7,6.8c-0.1,0-0.2,0-0.3,0c-3.9-0.1-6.9-3.4-6.8-7.3
							c1.1-31.5-23.6-58.1-55.2-59.2l-43.3-1.5c-0.7,0-1.4,0-2,0c-30.6,0-56.1,24.4-57.2,55.2c-0.1,3.8-3.2,6.8-7,6.8
							c-0.1,0-0.2,0-0.3,0c-3.9-0.1-6.9-3.4-6.8-7.3c1.4-38.4,33-68.8,71.2-68.8c0.8,0,1.7,0,2.5,0l43.3,1.5
							C2460.7,3038.4,2491.5,3071.5,2490.1,3110.8z"/>
					</g>
				</g>
				<g>
					<path class="st5" d="M2368.6,3033c-7.5,28.7,9.7,58.1,38.4,65.7v0c28.7,7.5,58.1-9.7,65.7-38.4l12.3-46.8l-104-27.3
						L2368.6,3033z"/>
					<path class="st4" d="M2486.8,3006.3l-104-27.3c-1.9-0.5-4-0.2-5.7,0.8c-1.7,1-3,2.6-3.5,4.6l-12.3,46.8
						c-4.1,15.8-1.9,32.3,6.4,46.5c8.3,14.1,21.5,24.2,37.4,28.3h0c5.2,1.4,10.4,2,15.6,2c10.7,0,21.3-2.8,30.8-8.4
						c14.1-8.3,24.2-21.5,28.3-37.4l12.3-46.8C2493.2,3011.4,2490.8,3007.3,2486.8,3006.3z M2465.4,3058.4
						c-3.1,12-10.7,22-21.4,28.2c-10.7,6.2-23.1,7.9-35.1,4.8c-12-3.1-22-10.7-28.2-21.4c-6.2-10.7-8-23.1-4.8-35.1l10.4-39.5
						l89.5,23.5L2465.4,3058.4z"/>
				</g>
				<g>
					<g>
						<path class="st6" d="M2622.3,3313.4l-319.9-10.4c-33.2-1.1-60.9,24.9-62,58.1L2223,3898c-1.1,33.2,24.9,60.9,58.1,62
							l319.9,10.4c33.2,1.1,60.9-24.9,62-58.1l17.4-536.8C2681.5,3342.2,2655.5,3314.5,2622.3,3313.4z"/>
						<path class="st4" d="M2622.5,3305.9l-319.9-10.4c-37.3-1.2-68.5,28.1-69.8,65.4l-17.4,536.8c-0.6,18,5.9,35.2,18.2,48.4
							c12.3,13.2,29.1,20.8,47.1,21.3l319.9,10.4c0.8,0,1.5,0,2.2,0c17.2,0,33.5-6.4,46.2-18.3c13.2-12.3,20.8-29.1,21.3-47.1
							l17.4-536.8C2689.1,3338.4,2659.8,3307.1,2622.5,3305.9z M2672.9,3375.2l-17.4,536.8c-0.5,14-6.3,27.1-16.6,36.7
							c-10.3,9.6-23.7,14.7-37.7,14.2l-319.9-10.4c-14-0.5-27.1-6.3-36.7-16.6c-9.6-10.3-14.6-23.6-14.2-37.7l17.4-536.8
							c0.9-28.4,24.3-50.9,52.6-50.9c0.6,0,1.1,0,1.7,0l319.9,10.4C2651,3321.8,2673.8,3346.2,2672.9,3375.2z"/>
					</g>
					<g>
						<path class="st2" d="M2521.3,3310.1l-319.9-10.4c-33.2-1.1-60.9,24.9-62,58.1l-17.4,536.8c-1.1,33.2,24.9,60.9,58.1,62
							l319.9,10.4c33.2,1.1,60.9-24.9,62-58.1l17.4-536.8C2580.5,3339,2554.5,3311.2,2521.3,3310.1z"/>
						<path class="st4" d="M2521.5,3302.6l-319.9-10.4c-37.3-1.2-68.5,28.1-69.8,65.4l-17.4,536.8c-0.6,18,5.9,35.2,18.2,48.4
							c12.3,13.2,29.1,20.8,47.1,21.3l319.9,10.4c0.8,0,1.5,0,2.2,0c17.2,0,33.5-6.4,46.2-18.3c13.2-12.3,20.8-29.1,21.3-47.1
							l17.4-536.8C2588.1,3335.1,2558.8,3303.8,2521.5,3302.6z M2571.9,3371.9l-17.4,536.8c-0.5,14-6.3,27.1-16.6,36.7
							c-10.3,9.6-23.6,14.7-37.7,14.2l-319.9-10.4c-14-0.5-27.1-6.3-36.7-16.6c-9.6-10.3-14.6-23.6-14.2-37.7l17.4-536.8
							c0.9-28.4,24.3-50.9,52.6-50.9c0.6,0,1.1,0,1.7,0l319.9,10.4C2550,3318.6,2572.8,3342.9,2571.9,3371.9z"/>
					</g>
					<g>
						<path class="st3" d="M2210.3,3362.4l-3.6-0.1c-9-0.3-16.5,6.8-16.8,15.8l-16.2,499.9c-0.3,9,6.8,16.5,15.8,16.8l3.6,0.1
							c9,0.3,16.5-6.8,16.8-15.8l16.2-499.9C2226.3,3370.2,2219.3,3362.7,2210.3,3362.4z"/>
						<path class="st3" d="M2284.8,3364.6l-3.6-0.1c-9-0.3-16.5,6.8-16.8,15.8l-16.2,499.9c-0.3,9,6.8,16.5,15.8,16.8l3.6,0.1
							c9,0.3,16.5-6.8,16.8-15.8l16.2-499.9C2300.8,3372.4,2293.8,3364.9,2284.8,3364.6z"/>
						<path class="st3" d="M2360.3,3367.6l-3.6-0.1c-9-0.3-16.5,6.8-16.8,15.8l-16.2,499.9c-0.3,9,6.8,16.5,15.8,16.8l3.6,0.1
							c9,0.3,16.5-6.8,16.8-15.8l16.2-499.9C2376.3,3375.4,2369.3,3367.9,2360.3,3367.6z"/>
						<path class="st3" d="M2437.4,3369.8l-3.6-0.1c-9-0.3-16.5,6.8-16.8,15.8l-16.2,499.9c-0.3,9,6.8,16.5,15.8,16.8l3.6,0.1
							c9,0.3,16.5-6.8,16.8-15.8l16.2-499.9C2453.4,3377.6,2446.4,3370,2437.4,3369.8z"/>
						<g>
							<path class="st3" d="M2511.9,3372.1l-3.6-0.1c-9-0.3-16.5,6.8-16.8,15.8l-16.2,499.9c-0.3,9,6.8,16.5,15.8,16.8l3.6,0.1
								c9,0.3,16.5-6.8,16.8-15.8l16.2-499.9C2527.9,3379.9,2520.9,3372.4,2511.9,3372.1z"/>
						</g>
					</g>
				</g>
				<g>
					<path class="st5" d="M2848.6,1924.8c-40,0-72.5,32.5-72.5,72.5v111.2c0,48.5,28.9,90.2,70.5,108.8v59h111.7v-66.6
						c33.8-21,56.2-58.5,56.2-101.2v-76.9l-7.8-106.8H2848.6z"/>
					<path class="st4" d="M3014.3,1924.3c-0.3-3.9-3.5-7-7.5-7h-158.2c-44.1,0-80,35.9-80,80v111.2c0,48.2,27.5,92.3,70.5,113.6
						v54.2c0,4.1,3.4,7.5,7.5,7.5h111.7c4.1,0,7.5-3.4,7.5-7.5v-62.5c35.3-23.6,56.2-62.7,56.2-105.3v-76.9c0-0.2,0-0.4,0-0.5
						L3014.3,1924.3z M3007,2108.5c0,38.8-19.7,74.3-52.7,94.9c-2.2,1.4-3.5,3.8-3.5,6.4v59.1h-96.7v-51.5c0-3-1.7-5.6-4.4-6.8
						c-40.1-18-66.1-58-66.1-102v-111.2c0-35.8,29.2-65,65-65h151.2l7.2,99.6V2108.5z"/>
				</g>
				<g>
					<g>
						<path class="st5" d="M3137.6,2929.8l-107.4,5l10.1,219.4c1.4,29.7,26.5,52.6,56.2,51.2l0,0c29.7-1.4,52.6-26.5,51.2-56.2
							L3137.6,2929.8z"/>
						<path class="st4" d="M3145.1,2929.4c-0.2-4.1-3.7-7.3-7.8-7.1l-107.4,5c-4.1,0.2-7.3,3.7-7.1,7.8l10.1,219.4
							c1.5,32.8,28.7,58.4,61.2,58.4c0.9,0,1.9,0,2.9-0.1c33.8-1.6,59.9-30.3,58.4-64L3145.1,2929.4z M3096.2,3197.8l0.3,7.5
							L3096.2,3197.8c-12.3,0.6-24.2-3.7-33.3-12c-9.1-8.3-14.5-19.7-15.1-32.1l-9.8-211.9l92.5-4.3l9.8,211.9
							C3141.4,3174.9,3121.7,3196.6,3096.2,3197.8z"/>
					</g>
					<g>
						<path class="st1" d="M3052.9,2277.9L3052.9,2277.9l-50.2-1.6l-17.5,76.2l37.4,778l142.3-6.8l-37.4-778
							C3125.6,2306.3,3092.2,2276,3052.9,2277.9z"/>
						<path class="st4" d="M3052.9,2270.4l-49.9-1.6c-4.1-0.1-7.6,3.1-7.7,7.3s3.1,7.6,7.3,7.7l50.2,1.6c0.2,0,0.4,0,0.6,0
							c35.1-1.7,65,25.5,66.7,60.6l37.1,770.5l-127.3,6.1l-37.1-770.5c-0.2-4.1-3.7-7.3-7.9-7.1c-4.1,0.2-7.3,3.7-7.1,7.9l37.4,778
							c0.1,2,1,3.9,2.4,5.2c1.4,1.3,3.2,1.9,5,1.9c0.1,0,0.2,0,0.4,0l142.3-6.8c4.1-0.2,7.3-3.7,7.1-7.9l-37.4-778
							C3132.9,2302,3096.1,2268.5,3052.9,2270.4z"/>
					</g>
				</g>
				<g>
					<path class="st1" d="M2749.6,2276.3c-50.3,0-91,40.8-91,91v300.5v347.9h430.1v-620.6l-83.9-118.8H2749.6z"/>
					<path class="st4" d="M3088.7,2387.6c-4.1,0-7.5,3.4-7.5,7.5v613.1h-415.1v-640.9c0-46.1,37.5-83.5,83.5-83.5h255.2
						c4.1,0,7.5-3.4,7.5-7.5s-3.4-7.5-7.5-7.5h-255.2c-54.3,0-98.5,44.2-98.5,98.5v648.4c0,4.1,3.4,7.5,7.5,7.5h430.1
						c4.1,0,7.5-3.4,7.5-7.5v-620.6C3096.2,2390.9,3092.8,2387.6,3088.7,2387.6z"/>
				</g>
				<g>
					<path class="st3" d="M2899.9,1857.4c0.3,0,0.7,0,1,0c0.5,0,1,0,1.5,0H2899.9z"/>
					<path class="st3" d="M2905.6,1857.5c-1.5-0.1-3.1-0.1-4.6-0.1c-79.8,0.7-129,57.3-138.9,133.2c-2.2,17,1,34.2,8.7,49.4
						l43.3,84.6c8.4,24.3,31.2,40.6,56.9,40.6h133.4c16.6,0,31-11.2,35-27.3l17.4-68.9C3092.7,1969.1,3011.7,1861.1,2905.6,1857.5z"
						/>
					<path class="st4" d="M2905.8,1850c-0.9,0-1.8-0.1-2.7-0.1c-0.2,0-0.4,0-0.7,0h-2.5c-0.2,0-0.4,0-0.7,0
						c-39.1,0.7-73.3,14.5-98.9,40.1c-24.7,24.7-40.5,59.1-45.8,99.6c-2.4,18.4,0.9,37,9.5,53.8l43.1,84.2
						c9.5,27,35.1,45.1,63.8,45.1h133.4c20,0,37.4-13.6,42.3-33l17.3-68.6c16.9-47.6,9.5-100-20.3-143.9
						C3012.1,1880.8,2960.6,1851.9,2905.8,1850z M3049.8,2066.5c-0.1,0.2-0.2,0.5-0.2,0.7l-17.4,68.9c-3.2,12.7-14.6,21.6-27.8,21.6
						h-133.4c-22.5,0-42.5-14.3-49.8-35.5c-0.1-0.3-0.3-0.7-0.4-1l-43.3-84.6c-7.2-14.1-10-29.6-8-45
						c10-77.7,60.4-126.1,131.7-126.7c1.4,0,2.8,0,4.1,0.1c50,1.7,97.1,28.1,126,70.8C3058.5,1975.8,3065.3,2023.4,3049.8,2066.5z"
						/>
				</g>
				<path class="st6" d="M2897.2,2037.9h-9.7c-4.1,0-7.5,3.4-7.5,7.5s3.4,7.5,7.5,7.5h9.7c4.1,0,7.5-3.4,7.5-7.5
					S2901.3,2037.9,2897.2,2037.9z"/>
				<path class="st6" d="M2812.3,2037.9h-9.7c-4.1,0-7.5,3.4-7.5,7.5s3.4,7.5,7.5,7.5h9.7c4.1,0,7.5-3.4,7.5-7.5
					S2816.5,2037.9,2812.3,2037.9z"/>
				<g>
					<polygon class="st6" points="2658.6,3950 2792,3950 2856.9,3015.7 2658.6,3015.7 					"/>
					<path class="st4" d="M2856.9,3008.2h-198.3c-4.1,0-7.5,3.4-7.5,7.5V3950c0,4.1,3.4,7.5,7.5,7.5H2792c3.9,0,7.2-3,7.5-7
						l64.9-934.3c0.1-2.1-0.6-4.1-2-5.6C2860.9,3009.1,2858.9,3008.2,2856.9,3008.2z M2785,3942.5h-118.9v-919.3h182.8L2785,3942.5z
						"/>
				</g>
				<g>
					<g>
						<polygon class="st6" points="2943,3950 3076.5,3950 3076.5,3015.7 2878.2,3015.7 						"/>
						<path class="st4" d="M3076.5,3008.2h-198.3c-2.1,0-4.1,0.9-5.5,2.4c-1.4,1.5-2.1,3.6-2,5.6l64.9,934.3c0.3,3.9,3.5,7,7.5,7
							h133.4c4.1,0,7.5-3.4,7.5-7.5v-934.3C3084,3011.5,3080.6,3008.2,3076.5,3008.2z M3069,3942.5H2950l-63.8-919.3H3069V3942.5z"
							/>
					</g>
				</g>
				<g>
					<polygon class="st6" points="2658.6,3950 2792,3950 2848.9,3130.2 2936.4,3130.2 3076.5,3015.7 2658.6,3015.7 					"/>
					<path class="st4" d="M3076.5,3008.2h-417.9c-4.1,0-7.5,3.4-7.5,7.5V3950c0,4.1,3.4,7.5,7.5,7.5H2792c3.9,0,7.2-3,7.5-7
						l56.4-812.8h80.5c4.1,0,7.5-3.4,7.5-7.5c0-4.1-3.4-7.5-7.5-7.5h-87.5c-3.9,0-7.2,3-7.5,7l-56.4,812.8h-118.9v-919.3h410.4
						c4.1,0,7.5-3.4,7.5-7.5S3080.6,3008.2,3076.5,3008.2z"/>
				</g>
				<g>
					<path class="st3" d="M2899.3,4016.4l-112.1-66.5h-128.5v74.5c0,16.3,13.2,29.5,29.5,29.5h201.2
						C2909.9,4054,2917.2,4026.6,2899.3,4016.4z"/>
					<path class="st4" d="M2903,4009.9l-112.1-66.4c-1.2-0.7-2.5-1-3.8-1h-128.5c-4.1,0-7.5,3.4-7.5,7.5v74.5c0,20.4,16.6,37,37,37
						h201.2c12.7,0,23.4-8.3,26.7-20.5C2919.2,4028.7,2914,4016.3,2903,4009.9z M2901.5,4037.1c-1.2,4.5-5,9.4-12.2,9.4h-201.2
						c-12.2,0-22-9.9-22-22v-67h119l110.4,65.4c0,0,0.1,0,0.1,0.1C2901.8,4026.5,2902.7,4032.6,2901.5,4037.1z"/>
				</g>
				<g>
					<path class="st3" d="M3183.7,4016.4l-112.1-66.5H2943v74.5c0,16.3,13.2,29.5,29.5,29.5h201.2
						C3194.4,4054,3201.7,4026.6,3183.7,4016.4z"/>
					<path class="st4" d="M3187.5,4009.9l-112.1-66.4c-1.2-0.7-2.5-1-3.8-1H2943c-4.1,0-7.5,3.4-7.5,7.5v74.5c0,20.4,16.6,37,37,37
						h201.2c12.7,0,23.4-8.3,26.7-20.5C3203.7,4028.7,3198.5,4016.2,3187.5,4009.9z M3186,4037.1c-1.2,4.5-5,9.4-12.2,9.4h-201.2
						c-12.2,0-22-9.9-22-22v-67h119l110.4,65.4c0,0,0.1,0,0.1,0.1C3186.2,4026.5,3187.2,4032.6,3186,4037.1z"/>
				</g>
				<g>
					<path class="st1" d="M2652.7,2320.4l-107.9,316.9l23.6,92.4c32.6,16.9,52,28.8,68.9-3.8l21.3-58l91-391.5
						C2686.7,2276.3,2664.7,2297.2,2652.7,2320.4z"/>
					<path class="st4" d="M2749.6,2268.8c-69.7,0-91.9,25.7-103.5,48.1c-0.2,0.3-0.3,0.7-0.4,1l-107.9,316.9
						c-0.5,1.4-0.5,2.9-0.2,4.3l23.6,92.4c0.5,2.1,1.9,3.8,3.8,4.8l4,2.1c16.3,8.5,29.8,15.5,42.3,15.5c3.1,0,6.1-0.4,9.1-1.4
						c9.2-2.9,16.9-10.5,23.5-23.3c0.1-0.3,0.3-0.6,0.4-0.9l21.3-58c1.4-3.9-0.6-16.4-0.1-29.9c0.2-4.1-12.6,20.8-14,24.7
						l-21.1,57.5c-4.6,8.8-9.3,13.8-14.5,15.4c-9.2,2.9-22.8-4.2-40-13.1l-1.1-0.6l-22.2-87l107-314.2
						c10.3-19.6,29.2-39.5,89.9-39.5c4.1,0,7.5-3.4,7.5-7.5S2753.7,2268.8,2749.6,2268.8z"/>
				</g>
				<g>
					<polygon class="st1" points="2367.3,2993.8 2487.3,3025.8 2637.3,2725.8 2564,2638.8 2544.9,2637.2 					"/>
					<path class="st4" d="M2640.7,2719.1c-3.7-1.9-8.2-0.4-10.1,3.4L2483.3,3017l-105.2-28.1l174.6-351.4c1.8-3.7-0.8-5.2-4.5-7
						c-3.7-1.8-8.2-0.3-10.1,3.4l-177.6,356.6c-1,2-1,4.4-0.1,6.4s2.7,3.6,4.9,4.2l120,32c0.6,0.2,1.3,0.3,1.9,0.3
						c2.8,0,5.4-1.6,6.7-4.1l150-300C2645.9,2725.4,2644.4,2720.9,2640.7,2719.1z"/>
				</g>
				<g>
					<circle class="st6" cx="2494.6" cy="4009.4" r="31.4"/>
					<path class="st4" d="M2494.6,3970.5c-21.4,0-38.9,17.4-38.9,38.9s17.4,38.9,38.9,38.9c21.4,0,38.9-17.4,38.9-38.9
						S2516,3970.5,2494.6,3970.5z M2494.6,4033.2c-13.2,0-23.9-10.7-23.9-23.9s10.7-23.9,23.9-23.9c13.2,0,23.9,10.7,23.9,23.9
						S2507.8,4033.2,2494.6,4033.2z"/>
				</g>
				<g>
					<circle class="st6" cx="2185.7" cy="4009.4" r="31.4"/>
					<path class="st4" d="M2185.7,3970.5c-21.4,0-38.9,17.4-38.9,38.9s17.4,38.9,38.9,38.9c21.4,0,38.9-17.4,38.9-38.9
						S2207.1,3970.5,2185.7,3970.5z M2185.7,4033.2c-13.2,0-23.9-10.7-23.9-23.9s10.7-23.9,23.9-23.9c13.2,0,23.9,10.7,23.9,23.9
						S2198.8,4033.2,2185.7,4033.2z"/>
				</g>
				<g>
					<circle class="st7" cx="2583.6" cy="4009.4" r="31.4"/>
					<path class="st4" d="M2583.6,3970.5c-21.4,0-38.9,17.4-38.9,38.9s17.4,38.9,38.9,38.9c21.4,0,38.9-17.4,38.9-38.9
						S2605,3970.5,2583.6,3970.5z M2583.6,4033.2c-13.2,0-23.9-10.7-23.9-23.9s10.7-23.9,23.9-23.9c13.2,0,23.9,10.7,23.9,23.9
						S2596.8,4033.2,2583.6,4033.2z"/>
				</g>
				<g>
					<circle class="st7" cx="2274.6" cy="4009.4" r="31.4"/>
					<path class="st4" d="M2274.6,3970.5c-21.4,0-38.9,17.4-38.9,38.9s17.4,38.9,38.9,38.9s38.9-17.4,38.9-38.9
						S2296.1,3970.5,2274.6,3970.5z M2274.6,4033.2c-13.2,0-23.9-10.7-23.9-23.9s10.7-23.9,23.9-23.9c13.2,0,23.9,10.7,23.9,23.9
						S2287.8,4033.2,2274.6,4033.2z"/>
				</g>
			</g>
			<g>
				<g>
					<path class="st5" d="M3521.3,1924.8c-40,0-72.5,32.5-72.5,72.5v111.2c0,48.5,28.9,90.2,70.5,108.8v59H3631v-66.6
						c33.8-21,56.2-58.5,56.2-101.2v-76.9l-7.8-106.8H3521.3z"/>
					<path class="st4" d="M3687,1924.3c-0.3-3.9-3.5-7-7.5-7h-158.2c-44.1,0-80,35.9-80,80v111.2c0,48.2,27.5,92.3,70.5,113.6v54.2
						c0,4.1,3.4,7.5,7.5,7.5H3631c4.1,0,7.5-3.4,7.5-7.5v-62.5c35.3-23.6,56.2-62.7,56.2-105.3v-76.9c0-0.2,0-0.4,0-0.5L3687,1924.3
						z M3679.8,2108.5c0,38.8-19.7,74.3-52.7,94.9c-2.2,1.4-3.5,3.8-3.5,6.4v59.1h-96.7v-51.5c0-3-1.7-5.6-4.4-6.8
						c-40.1-18-66.1-58-66.1-102v-111.2c0-35.8,29.2-65,65-65h151.2l7.2,99.6V2108.5z"/>
				</g>
				<g>
					<path class="st6" d="M3572.7,1857.4c-116.7,0-128,56.8-137.9,133.2c-2.2,17,1,34.2,8.7,49.4l43.3,84.6
						c8.4,24.3,31.2,40.6,56.9,40.6h133.4c16.6,0,31-11.2,35-27.3l17.4-68.9C3773.1,1917.8,3661.1,1857.4,3572.7,1857.4z"/>
					<path class="st4" d="M3718.3,1915.5c-16.1-21.3-39.1-38.6-66.6-50.1c-24.5-10.2-51.8-15.5-79-15.5c-56.5,0-93,13-114.9,40.8
						c-19.6,24.9-25.2,58.1-30.4,98.9c-2.4,18.4,0.9,37,9.5,53.8l43.1,84.2c9.5,27,35.1,45.1,63.8,45.1h133.4
						c20,0,37.4-13.6,42.3-33l17.3-68.8c9.3-32.5,12.1-62.6,8.2-89.6C3741.6,1956.6,3732.6,1934.5,3718.3,1915.5z M3722.4,2067
						c0,0.1,0,0.2-0.1,0.2l-17.4,68.9c-3.2,12.7-14.6,21.6-27.8,21.6h-133.4c-22.5,0-42.5-14.3-49.8-35.5c-0.1-0.3-0.3-0.7-0.4-1
						l-43.3-84.6c-7.2-14.1-10-29.6-8-45c5-38.5,10.2-69.7,27.4-91.6c18.8-23.9,51.5-35.1,103.1-35.1c42.9,0,100.5,15.7,133.6,59.6
						c12.7,16.9,20.8,36.7,24,58.9C3733.8,2008.4,3731.2,2036.5,3722.4,2067z"/>
				</g>
				<path class="st6" d="M3569.9,2037.9h-9.7c-4.1,0-7.5,3.4-7.5,7.5s3.4,7.5,7.5,7.5h9.7c4.1,0,7.5-3.4,7.5-7.5
					S3574.1,2037.9,3569.9,2037.9z"/>
				<path class="st6" d="M3485.1,2037.9h-9.7c-4.1,0-7.5,3.4-7.5,7.5s3.4,7.5,7.5,7.5h9.7c4.1,0,7.5-3.4,7.5-7.5
					S3489.2,2037.9,3485.1,2037.9z"/>
				<path class="st6" d="M3572.6,2020.9h-45.5c-4.1,0-7.5,3.4-7.5,7.5s3.4,7.5,7.5,7.5h45.5c4.1,0,7.5-3.4,7.5-7.5
					S3576.7,2020.9,3572.6,2020.9z"/>
				<g>
					<g>
						<g>
							<g>
								<path class="st4" d="M3860.9,3170.2c-0.1,0-0.2,0-0.4,0l-157,1.7c-8.6,0.1-16.7,3.5-22.7,9.7c-6,6.2-9.3,14.3-9.2,22.9
									l0.3,29.8c0,4.1,3.4,7.4,7.5,7.4c0,0,0,0,0.1,0c4.1,0,7.5-3.4,7.4-7.6l-0.3-29.8c-0.1-4.6,1.7-9,4.9-12.3
									c3.2-3.3,7.6-5.1,12.2-5.2l157-1.7c0.1,0,0.1,0,0.2,0c9.4,0,17.2,7.6,17.3,17.1l0.3,29.8c0,4.1,3.4,7.5,7.6,7.4
									c4.1,0,7.5-3.4,7.4-7.6l-0.3-29.8C3892.9,3184.5,3878.5,3170.2,3860.9,3170.2z"/>
							</g>
						</g>
						<g>
							<path class="st7" d="M3989.8,3290c0-0.7-0.2-31-0.2-31c-0.2-13.7-11.2-24.7-24.6-24.5l-364.5,4c-13.4,0.1-24.2,11.4-24,25.1
								c0,0,0.4,30.3,0.4,31c0,0.7-0.1,1.4-0.1,2.1l2.5,231.3c0.2,13.7,11.4,24.7,25.1,24.5l363.5-4c13.7-0.2,24.7-11.4,24.5-25.1
								l-2.5-231.3C3989.9,3291.3,3989.9,3290.6,3989.8,3290z"/>
							<path class="st4" d="M3997.4,3291.9c0-0.7,0-1.5-0.1-2.3c0-1.9,0-8.1-0.2-30.7c-0.1-8.6-3.5-16.7-9.5-22.7
								c-6-6-13.9-9.3-22.3-9.3c-0.1,0-0.2,0-0.4,0l-364.5,4c-17.5,0.2-31.6,14.8-31.5,32.7c0.3,22.6,0.4,28.8,0.4,30.7
								c-0.1,0.8-0.1,1.6-0.1,2.3l2.5,231.3c0.2,17.7,14.6,31.9,32.3,31.9c0.1,0,0.2,0,0.4,0l363.5-4c8.6-0.1,16.7-3.5,22.7-9.7
								c6-6.2,9.3-14.3,9.2-22.9L3997.4,3291.9C3997.4,3291.9,3997.4,3291.9,3997.4,3291.9z M3980,3535.7c-3.2,3.3-7.6,5.1-12.2,5.2
								l-363.5,4c-0.1,0-0.1,0-0.2,0c-9.4,0-17.2-7.6-17.3-17.1l-2.5-231.3c0-0.4,0-0.9,0.1-1.4c0-0.3,0-0.6,0-1
								c-0.1-1.6-0.3-19.2-0.4-30.7c-0.1-9.5,7.3-17.4,16.6-17.5l364.5-4c0.1,0,0.1,0,0.2,0c4.4,0,8.5,1.7,11.7,4.9
								c3.2,3.2,5.1,7.6,5.1,12.2c0.1,11.5,0.3,29,0.3,30.7c0,0.3,0,0.6,0,0.9c0.1,0.6,0.1,1,0.1,1.4l2.5,231.3
								C3985,3528,3983.3,3532.4,3980,3535.7z"/>
						</g>
					</g>
					<g>
						<path class="st5" d="M3824.5,2931.6l-107.4,5l10.1,219.4c1.4,29.7,26.5,52.6,56.2,51.2l0,0c29.7-1.4,52.6-26.5,51.2-56.2
							L3824.5,2931.6z"/>
						<path class="st4" d="M3832,2931.3c-0.2-4.1-3.7-7.3-7.8-7.1l-107.4,5c-4.1,0.2-7.3,3.7-7.1,7.8l10.1,219.4
							c0.8,16.4,7.8,31.4,19.9,42.5c11.4,10.4,25.9,16,41.2,16c1,0,1.9,0,2.9-0.1l-0.3-7.5l0.3,7.5c16.4-0.8,31.4-7.8,42.5-19.9
							c11-12.1,16.7-27.8,15.9-44.1L3832,2931.3z M3815.1,3184.6c-8.3,9.1-19.7,14.5-32.1,15.1c-12.3,0.6-24.2-3.7-33.3-12
							c-9.1-8.3-14.5-19.7-15.1-32.1l-9.8-211.9l92.5-4.3l9.8,211.9C3827.7,3163.7,3823.4,3175.5,3815.1,3184.6z"/>
					</g>
					<g>
						<path class="st5" d="M3739.8,2279.8L3739.8,2279.8h-85.5l17.8,74.6l37.4,778l142.3-6.8l-37.4-778
							C3812.5,2308.2,3779.1,2277.9,3739.8,2279.8z"/>
						<path class="st4" d="M3739.7,2272.3h-85.3c-4.1,0-7.5,3.4-7.5,7.5s3.4,7.5,7.5,7.5h85.5c0.1,0,0.2,0,0.4,0
							c35.1-1.7,65,25.5,66.7,60.6l37.1,770.5l-127.3,6.1l-37.1-770.5c-0.2-4.1-3.7-7.3-7.9-7.1c-4.1,0.2-7.3,3.7-7.1,7.9l37.4,778
							c0.2,4,3.5,7.1,7.5,7.1c0.1,0,0.2,0,0.4,0l142.3-6.8c2-0.1,3.9-1,5.2-2.4c1.3-1.5,2-3.4,1.9-5.4l-37.4-778
							C3819.8,2303.8,3782.9,2270.3,3739.7,2272.3z"/>
					</g>
				</g>
				<g>
					<path class="st5" d="M3462,2279.7c-46.8,0-84.8,38-84.8,84.8v604.2H3778v-604.2l-84.8-84.8H3462z"/>
					<path class="st4" d="M3778,2357c-4.1,0-7.5,3.4-7.5,7.5v596.7h-385.8v-596.7c0-42.6,34.7-77.3,77.3-77.3h231.2
						c4.1,0,7.5-3.4,7.5-7.5s-3.4-7.5-7.5-7.5H3462c-50.9,0-92.3,41.4-92.3,92.3v604.2c0,4.1,3.4,7.5,7.5,7.5H3778
						c4.1,0,7.5-3.4,7.5-7.5v-604.2C3785.5,2360.4,3782.1,2357,3778,2357z"/>
				</g>
				<g>
					<g>
						<g>
							<path class="st5" d="M3320.5,3151c-1.4,29.7,21.6,54.8,51.2,56.2l0,0c29.7,1.4,54.8-21.6,56.2-51.2l10.1-219.4l-107.4-5
								L3320.5,3151z"/>
							<path class="st4" d="M3438.4,2929.1l-107.4-5c-4.1-0.2-7.6,3-7.8,7.1l-10.1,219.4c-0.8,16.4,4.9,32,15.9,44.1
								c11,12.1,26.1,19.2,42.5,19.9c1,0,1.9,0.1,2.9,0.1c15.3,0,29.8-5.6,41.2-16c12.1-11,19.2-26.1,19.9-42.5l10.1-219.4
								c0.1-2-0.6-3.9-1.9-5.4C3442.2,2930.1,3440.4,2929.2,3438.4,2929.1z M3420.4,3155.6c-0.6,12.3-5.9,23.7-15.1,32.1
								c-9.1,8.3-21,12.6-33.3,12h0c-12.3-0.6-23.7-5.9-32.1-15.1c-8.3-9.1-12.6-21-12-33.3l9.8-211.9l92.5,4.3L3420.4,3155.6z"/>
						</g>
						<g>
							<path class="st5" d="M3415.3,2279.8c-39.3-1.9-72.7,28.4-74.6,67.7l-37.4,778l142.3,6.8l37.4-778l17.8-74.6H3415.3
								L3415.3,2279.8z"/>
							<path class="st4" d="M3500.7,2272.3h-85.3c-43.3-2-80.1,31.6-82.2,74.8l-37.4,778c-0.1,2,0.6,3.9,1.9,5.4
								c1.3,1.5,3.2,2.4,5.2,2.4l142.3,6.8c0.1,0,0.2,0,0.4,0c4,0,7.3-3.1,7.5-7.1l37.4-778c0.2-4.1-3-7.7-7.1-7.9
								c-4.2-0.2-7.7,3-7.9,7.1l-37.1,770.5l-127.3-6.1l37.1-770.5c1.7-35.1,31.6-62.3,66.7-60.6c0.1,0,0.2,0,0.4,0h85.5
								c4.1,0,7.5-3.4,7.5-7.5S3504.9,2272.3,3500.7,2272.3z"/>
						</g>
					</g>
					<polygon class="st5" points="3377.1,2968.8 3543.4,2968.8 3554.7,2364.5 3580.1,2279.7 3377.1,2364.5 					"/>
					<g>
						<line class="st5" x1="3616.9" y1="2279.7" x2="3462" y2="2279.7"/>
						<path class="st4" d="M3616.9,2272.2H3462c-4.1,0-7.5,3.4-7.5,7.5s3.4,7.5,7.5,7.5h154.9c4.1,0,7.5-3.4,7.5-7.5
							S3621,2272.2,3616.9,2272.2z"/>
					</g>
					<g>
						<polygon class="st5" points="3377.1,2968.8 3574.5,2968.8 3377.1,2364.5 						"/>
						<path class="st4" d="M3574.5,2961.3h-189.9v-596.7c0-4.1-3.4-7.5-7.5-7.5s-7.5,3.4-7.5,7.5v604.2c0,4.1,3.4,7.5,7.5,7.5h197.4
							c4.1,0,7.5-3.4,7.5-7.5S3578.6,2961.3,3574.5,2961.3z"/>
					</g>
				</g>
				<g>
					<g>
						<path class="st3" d="M3388.6,4019c-0.2,30.7,18.9,35,38.2,35h58.5c15.2,0,27.5-12.3,27.5-27.5v-69.4h-124.4L3388.6,4019z"/>
						<path class="st4" d="M3512.8,3949.6h-124.4c-2,0-3.9,0.8-5.3,2.2s-2.2,3.3-2.2,5.3l0.1,61.9c-0.1,13.8,3.5,24.4,10.6,31.5
							c9.8,9.8,23.9,11.1,35.1,11.1h58.5c19.3,0,35-15.7,35-35v-69.4C3520.3,3952.9,3517,3949.6,3512.8,3949.6z M3505.3,4026.5
							c0,11-9,20-20,20h-58.5c-12.4,0-19.9-2-24.5-6.6c-4.2-4.2-6.3-11.2-6.2-20.9l-0.1-54.4h109.3V4026.5z"/>
					</g>
					<g>
						<path class="st3" d="M3653.7,4019c-0.2,30.7,18.9,35,38.2,35h58.5c15.2,0,27.5-12.3,27.5-27.5v-69.4h-124.4L3653.7,4019z"/>
						<path class="st4" d="M3778,3949.6h-124.4c-2,0-3.9,0.8-5.3,2.2s-2.2,3.3-2.2,5.3l0.1,61.9c-0.1,13.8,3.5,24.4,10.6,31.5
							c9.8,9.8,23.9,11.1,35.1,11.1h58.5c19.3,0,35-15.7,35-35v-69.4C3785.5,3952.9,3782.1,3949.6,3778,3949.6z M3770.5,4026.5
							c0,11-9,20-20,20h-58.5c-12.4,0-19.9-2-24.5-6.6c-4.2-4.2-6.3-11.2-6.2-20.9l-0.1-54.4h109.3V4026.5z"/>
					</g>
					<g>
						<polygon class="st6" points="3653.6,3957.1 3778,3957.1 3778,2968.8 3593.2,2968.8 						"/>
						<path class="st4" d="M3778,2961.3h-184.8c-2.1,0-4,0.9-5.5,2.4s-2.1,3.5-2,5.6l60.5,988.3c0.2,4,3.5,7,7.5,7H3778
							c4.1,0,7.5-3.4,7.5-7.5v-988.3C3785.5,2964.6,3782.1,2961.3,3778,2961.3z M3770.5,3949.6h-109.8l-59.5-973.3h169.3V3949.6z"/>
					</g>
					<g>
						<g>
							<polygon class="st6" points="3388.5,3957.1 3512.8,3957.1 3573.3,2968.8 3388.5,2968.8 							"/>
							<path class="st4" d="M3573.3,2961.3h-184.8c-4.1,0-7.5,3.4-7.5,7.5v988.3c0,4.1,3.4,7.5,7.5,7.5h124.4c4,0,7.2-3.1,7.5-7
								l60.5-988.3c0.1-2.1-0.6-4.1-2-5.6S3575.4,2961.3,3573.3,2961.3z M3505.8,3949.6H3396v-973.3h169.3L3505.8,3949.6z"/>
						</g>
					</g>
					<g>
						<polygon class="st6" points="3519,3075.5 3600.6,3075.5 3653.6,3957.1 3778,3957.1 3778,2968.8 3388.5,2968.8 						"/>
						<path class="st4" d="M3778,2961.3h-389.5c-4.1,0-7.5,3.4-7.5,7.5c0,4.1,3.4,7.5,7.5,7.5h382v973.3h-109.8l-52.6-874.5
							c-0.2-4-3.5-7-7.5-7H3519c-4.1,0-7.5,3.4-7.5,7.5c0,4.1,3.4,7.5,7.5,7.5h74.5l52.6,874.5c0.2,4,3.5,7,7.5,7H3778
							c4.1,0,7.5-3.4,7.5-7.5v-988.3C3785.5,2964.6,3782.1,2961.3,3778,2961.3z"/>
					</g>
				</g>
				<g>
					<g>
						<path class="st4" d="M4082.7,3034.2h-43.3c-39.6,0-71.7,32.2-71.7,71.7v401.7c0,4.1,3.4,7.5,7.5,7.5H4147
							c4.1,0,7.5-3.4,7.5-7.5V3106C4154.5,3066.4,4122.3,3034.2,4082.7,3034.2z M4139.5,3500.1h-156.8V3106
							c0-31.3,25.5-56.7,56.7-56.7h43.3c31.3,0,56.7,25.5,56.7,56.7V3500.1z"/>
						<g>
							<path class="st2" d="M4082.7,3034.7h-43.3c-39.3,0-71.3,32-71.3,71.3c0,3.9,3.1,7,7,7s7-3.1,7-7c0-31.6,25.7-57.2,57.2-57.2
								h43.3c31.6,0,57.2,25.7,57.2,57.2c0,3.9,3.1,7,7,7s7-3.1,7-7C4154,3066.7,4122,3034.7,4082.7,3034.7z"/>
							<path class="st4" d="M4082.7,3019.7h-43.3c-47.6,0-86.3,38.7-86.3,86.3c0,12.1,9.9,22,22,22s22-9.9,22-22
								c0-23.3,18.9-42.2,42.2-42.2h43.3c23.3,0,42.2,18.9,42.2,42.2c0,12.1,9.9,22,22,22s22-9.9,22-22
								C4169,3058.4,4130.3,3019.7,4082.7,3019.7z M4147,3113c-3.9,0-7-3.1-7-7c0-31.6-25.7-57.2-57.2-57.2h-43.3
								c-31.6,0-57.2,25.7-57.2,57.2c0,3.9-3.1,7-7,7s-7-3.1-7-7c0-39.3,32-71.3,71.3-71.3h43.3c39.3,0,71.3,32,71.3,71.3
								C4154,3109.9,4150.9,3113,4147,3113z"/>
						</g>
					</g>
					<g>
						<path class="st7" d="M4306.4,3369.3l-302.1,1.1c-31.3,0.1-56.6,25.6-56.5,56.9l1.8,507c0.1,31.3,25.6,56.6,56.9,56.5
							l302.1-1.1c31.3-0.1,56.6-25.6,56.5-56.9l-1.8-507C4363.2,3394.5,4337.7,3369.2,4306.4,3369.3z"/>
						<path class="st4" d="M4351.8,3380.5c-12.1-12-28.2-18.6-45.2-18.6c-0.1,0-0.2,0-0.2,0l-302.1,1.1c-35.4,0.1-64.1,29-64,64.5
							l1.8,507c0.1,17.2,6.8,33.3,19,45.3c12.1,12,28.2,18.6,45.2,18.6c0.1,0,0.2,0,0.2,0l302.1-1.1c17.2-0.1,33.3-6.8,45.4-19
							s18.7-28.3,18.6-45.5l-1.8-507C4370.8,3408.7,4364,3392.6,4351.8,3380.5z M4343.4,3967.7c-9.3,9.3-21.6,14.5-34.8,14.5
							l-302.1,1.1c-0.1,0-0.1,0-0.2,0c-27.1,0-49.1-22-49.2-49.1l-1.8-507c-0.1-27.1,21.9-49.3,49.1-49.4l302.1-1.1
							c0.1,0,0.1,0,0.2,0c13.1,0,25.4,5.1,34.7,14.3c9.3,9.3,14.5,21.6,14.5,34.8l1.8,507C4357.7,3946,4352.6,3958.4,4343.4,3967.7z
							"/>
					</g>
					<path class="st4" d="M4305.6,3380.5c-12.1-12-28.2-18.6-45.2-18.6c-0.1,0-0.2,0-0.2,0l-302.1,1.1c-17.2,0.1-33.3,6.8-45.3,19
						c-12.1,12.2-18.7,28.3-18.6,45.5l1.8,507c0.1,17.2,6.8,33.3,19,45.3c12.1,12,28.2,18.6,45.2,18.6c0.1,0,0.2,0,0.2,0l302.1-1.1
						c17.2-0.1,33.3-6.8,45.4-19s18.7-28.3,18.6-45.5l-1.8-507C4324.5,3408.7,4317.8,3392.6,4305.6,3380.5z M4297.1,3967.7
						c-9.3,9.3-21.6,14.5-34.8,14.5l-302.1,1.1c-0.1,0-0.1,0-0.2,0c-27.1,0-49.1-22-49.2-49.1l-1.8-507c0-13.2,5-25.5,14.3-34.9
						c9.3-9.3,21.6-14.5,34.8-14.5l302.1-1.1c0.1,0,0.1,0,0.2,0c27.1,0,49.1,22,49.2,49.1l1.8,507
						C4311.5,3946,4306.4,3958.4,4297.1,3967.7z"/>
					<g>
						<path class="st6" d="M4211,3369.7l-302.1,1.1c-31.3,0.1-56.6,25.6-56.5,56.9l1.8,507c0.1,31.3,25.6,56.6,56.9,56.5l302.1-1.1
							c31.3-0.1,56.6-25.6,56.5-56.9l-1.8-507C4267.8,3394.9,4242.3,3369.6,4211,3369.7z"/>
						<path class="st4" d="M4256.5,3380.8c-12.1-12-28.2-18.6-45.2-18.6c-0.1,0-0.2,0-0.2,0l-302.1,1.1c-17.2,0.1-33.3,6.8-45.4,19
							s-18.7,28.3-18.6,45.5l1.8,507c0.1,17.2,6.8,33.3,19,45.3c12.1,12,28.2,18.6,45.2,18.6c0.1,0,0.2,0,0.2,0l302.1-1.1
							c35.4-0.1,64.1-29,64-64.5l-1.8-507C4275.4,3409,4268.6,3392.9,4256.5,3380.8z M4213.2,3982.6l0,7.5L4213.2,3982.6l-302.1,1.1
							c-0.1,0-0.1,0-0.2,0c-27.1,0-49.1-22-49.2-49.1l-1.8-507c0-13.2,5-25.5,14.3-34.9c9.3-9.3,21.6-14.5,34.8-14.5l302.1-1.1
							c0.1,0,0.1,0,0.2,0c27.1,0,49.1,22,49.2,49.1l1.8,507C4262.4,3960.4,4240.4,3982.5,4213.2,3982.6z"/>
					</g>
					<g>
						<circle class="st6" cx="4230" cy="4022.6" r="31.4"/>
						<path class="st4" d="M4230,3983.7c-21.4,0-38.9,17.4-38.9,38.9s17.4,38.9,38.9,38.9s38.9-17.4,38.9-38.9
							S4251.4,3983.7,4230,3983.7z M4230,4046.5c-13.2,0-23.9-10.7-23.9-23.9s10.7-23.9,23.9-23.9s23.9,10.7,23.9,23.9
							S4243.2,4046.5,4230,4046.5z"/>
					</g>
					<g>
						<circle class="st6" cx="3921.1" cy="4022.6" r="31.4"/>
						<path class="st4" d="M3921.1,3983.7c-21.4,0-38.9,17.4-38.9,38.9s17.4,38.9,38.9,38.9s38.9-17.4,38.9-38.9
							S3942.5,3983.7,3921.1,3983.7z M3921.1,4046.5c-13.2,0-23.9-10.7-23.9-23.9s10.7-23.9,23.9-23.9s23.9,10.7,23.9,23.9
							S3934.2,4046.5,3921.1,4046.5z"/>
					</g>
					<g>
						<circle class="st7" cx="4319" cy="4022.6" r="31.4"/>
						<path class="st4" d="M4319,3983.7c-21.4,0-38.9,17.4-38.9,38.9s17.4,38.9,38.9,38.9c21.4,0,38.9-17.4,38.9-38.9
							S4340.4,3983.7,4319,3983.7z M4319,4046.5c-13.2,0-23.9-10.7-23.9-23.9s10.7-23.9,23.9-23.9c13.2,0,23.9,10.7,23.9,23.9
							S4332.2,4046.5,4319,4046.5z"/>
					</g>
					<g>
						<circle class="st7" cx="4010" cy="4022.6" r="31.4"/>
						<path class="st4" d="M4010,3983.7c-21.4,0-38.9,17.4-38.9,38.9s17.4,38.9,38.9,38.9c21.4,0,38.9-17.4,38.9-38.9
							S4031.5,3983.7,4010,3983.7z M4010,4046.5c-13.2,0-23.9-10.7-23.9-23.9s10.7-23.9,23.9-23.9c13.2,0,23.9,10.7,23.9,23.9
							S4023.2,4046.5,4010,4046.5z"/>
					</g>
				</g>
				<g>
					<path class="st6" d="M3450.1,1860.8c-53,8-6.5,179.3-6.5,179.3l129.1-182.6C3533.4,1851.1,3477.2,1856.7,3450.1,1860.8z"/>
					<path class="st4" d="M3573.9,1850c-17.9-2.9-40.6-3.7-67.5-2.3c-26.9,1.4-49.2,4.4-57.5,5.7c-8.8,1.3-16,6.1-21.2,14.1
						c-11.6,17.8-13.6,52.9-5.9,104.1c5.6,37.2,14.2,69.1,14.5,70.4c0.9,3.3,3.9,5.5,7.2,5.5c0.7,0,1.3-0.1,2-0.3
						c4-1.1,6.4-5.2,5.3-9.2c-9.5-35.1-30-132.6-10.5-162.4c2.9-4.4,6.4-6.8,10.9-7.5c33.7-5.1,85.4-9,120.3-3.4
						c4.1,0.7,7.9-2.1,8.6-6.2C3580.8,1854.5,3578,1850.7,3573.9,1850z"/>
				</g>
				<path class="st4" d="M3630.3,3068h-29.8c-4.1,0-7.5,3.4-7.5,7.5s3.4,7.5,7.5,7.5h29.8c4.1,0,7.5-3.4,7.5-7.5
					S3634.5,3068,3630.3,3068z"/>
			</g>
		</g>
		<g>
			<g>
				<g>
					<g>
						<g>
							<g>
								<path class="st2" d="M2510,1486.6c-4.1,0-7.5,3.4-7.5,7.5v19.2c0,4.1,3.4,7.5,7.5,7.5s7.5-3.4,7.5-7.5v-19.2
									C2517.5,1490,2514.1,1486.6,2510,1486.6z"/>
								<path class="st2" d="M2510,1723.5c-4.1,0-7.5,3.4-7.5,7.5v19.2c0,4.1,3.4,7.5,7.5,7.5s7.5-3.4,7.5-7.5V1731
									C2517.5,1726.8,2514.1,1723.5,2510,1723.5z"/>
							</g>
							<g>
								<path class="st2" d="M2638,1614.6h-19.2c-4.1,0-7.5,3.4-7.5,7.5s3.4,7.5,7.5,7.5h19.2c4.1,0,7.5-3.4,7.5-7.5
									S2642.1,1614.6,2638,1614.6z"/>
								<path class="st2" d="M2401.1,1614.6H2382c-4.1,0-7.5,3.4-7.5,7.5s3.4,7.5,7.5,7.5h19.2c4.1,0,7.5-3.4,7.5-7.5
									S2405.3,1614.6,2401.1,1614.6z"/>
							</g>
						</g>
						<g>
							<g>
								<path class="st2" d="M2452.5,1507.5c-2.1-3.6-6.7-4.8-10.2-2.7c-3.6,2.1-4.8,6.7-2.7,10.2l9.6,16.6c1.4,2.4,3.9,3.8,6.5,3.8
									c1.3,0,2.6-0.3,3.7-1c3.6-2.1,4.8-6.7,2.7-10.2L2452.5,1507.5z"/>
								<path class="st2" d="M2570.9,1712.6c-2.1-3.6-6.7-4.8-10.2-2.7c-3.6,2.1-4.8,6.7-2.7,10.2l9.6,16.6c1.4,2.4,3.9,3.8,6.5,3.8
									c1.3,0,2.6-0.3,3.7-1c3.6-2.1,4.8-6.7,2.7-10.2L2570.9,1712.6z"/>
							</g>
							<g>
								<path class="st2" d="M2617.1,1551.6l-16.6,9.6c-3.6,2.1-4.8,6.7-2.7,10.2c1.4,2.4,3.9,3.8,6.5,3.8c1.3,0,2.6-0.3,3.7-1
									l16.6-9.6c3.6-2.1,4.8-6.7,2.7-10.2C2625.3,1550.8,2620.7,1549.6,2617.1,1551.6z"/>
								<path class="st2" d="M2412,1670.1l-16.6,9.6c-3.6,2.1-4.8,6.7-2.7,10.2c1.4,2.4,3.9,3.8,6.5,3.8c1.3,0,2.6-0.3,3.7-1
									l16.6-9.6c3.6-2.1,4.8-6.7,2.7-10.2C2420.1,1669.2,2415.6,1668,2412,1670.1z"/>
							</g>
						</g>
						<g>
							<g>
								<path class="st2" d="M2419.5,1561.2l-16.6-9.6c-3.6-2.1-8.2-0.8-10.2,2.7c-2.1,3.6-0.8,8.2,2.7,10.2l16.6,9.6
									c1.2,0.7,2.5,1,3.7,1c2.6,0,5.1-1.3,6.5-3.8C2424.3,1567.9,2423.1,1563.3,2419.5,1561.2z"/>
								<path class="st2" d="M2624.6,1679.6l-16.6-9.6c-3.6-2.1-8.2-0.8-10.2,2.7c-2.1,3.6-0.8,8.2,2.7,10.2l16.6,9.6
									c1.2,0.7,2.5,1,3.7,1c2.6,0,5.1-1.3,6.5-3.8C2629.4,1686.3,2628.2,1681.7,2624.6,1679.6z"/>
							</g>
							<g>
								<path class="st2" d="M2577.7,1504.8c-3.6-2.1-8.2-0.8-10.2,2.7l-9.6,16.6c-2.1,3.6-0.8,8.2,2.7,10.2c1.2,0.7,2.5,1,3.7,1
									c2.6,0,5.1-1.3,6.5-3.8l9.6-16.6C2582.6,1511.4,2581.3,1506.8,2577.7,1504.8z"/>
								<path class="st2" d="M2459.3,1709.9c-3.6-2.1-8.2-0.8-10.2,2.7l-9.6,16.6c-2.1,3.6-0.8,8.2,2.7,10.2c1.2,0.7,2.5,1,3.7,1
									c2.6,0,5.1-1.3,6.5-3.8l9.6-16.6C2464.1,1716.6,2462.9,1712,2459.3,1709.9z"/>
							</g>
						</g>
					</g>
					<path class="st2" d="M2551.3,1569.3l-30.5,27.2c-3.1,2.8-3.4,7.5-0.6,10.6c1.5,1.7,3.5,2.5,5.6,2.5c1.8,0,3.6-0.6,5-1.9
						l30.5-27.2c3.1-2.8,3.4-7.5,0.6-10.6C2559.1,1566.8,2554.4,1566.5,2551.3,1569.3z"/>
					<path class="st2" d="M2530.1,1637.8c-3-2.8-7.8-2.7-10.6,0.4s-2.7,7.8,0.4,10.6l51.1,47.8c1.4,1.4,3.3,2,5.1,2
						c2,0,4-0.8,5.5-2.4c2.8-3,2.7-7.8-0.4-10.6L2530.1,1637.8z"/>
					<path class="st2" d="M2510,1589.9c-17.7,0-32.2,14.4-32.2,32.2s14.4,32.2,32.2,32.2s32.2-14.4,32.2-32.2
						S2527.7,1589.9,2510,1589.9z M2510,1639.3c-9.5,0-17.2-7.7-17.2-17.2s7.7-17.2,17.2-17.2c9.5,0,17.2,7.7,17.2,17.2
						S2519.5,1639.3,2510,1639.3z"/>
					<path class="st2" d="M2510,1453.4c-93,0-168.7,75.7-168.7,168.7c0,93,75.7,168.7,168.7,168.7c93,0,168.7-75.7,168.7-168.7
						C2678.7,1529.1,2603,1453.4,2510,1453.4z M2510,1775.9c-84.8,0-153.7-69-153.7-153.7c0-84.8,69-153.7,153.7-153.7
						s153.7,69,153.7,153.7C2663.7,1706.9,2594.7,1775.9,2510,1775.9z"/>
					<path class="st2" d="M2510,1424.8c-52.7,0-102.3,20.5-139.6,57.8c-37.3,37.3-57.8,86.8-57.8,139.6
						c0,52.7,20.5,102.3,57.8,139.6c37.3,37.3,86.8,57.8,139.6,57.8c52.7,0,102.3-20.5,139.6-57.8c37.3-37.3,57.8-86.8,57.8-139.6
						c0-52.7-20.5-102.3-57.8-139.6C2612.3,1445.3,2562.7,1424.8,2510,1424.8z M2638.9,1751.1c-34.4,34.4-80.2,53.4-128.9,53.4
						c-48.7,0-94.5-19-129-53.4c-34.4-34.4-53.4-80.2-53.4-128.9c0-48.7,19-94.5,53.4-129c34.4-34.4,80.2-53.4,129-53.4
						c48.7,0,94.5,19,128.9,53.4c34.4,34.4,53.4,80.2,53.4,129C2692.3,1670.9,2673.4,1716.6,2638.9,1751.1z"/>
				</g>
			</g>
		</g>
		<g>
			<g>
				<path class="st2" d="M1992.8,1688.4L1992.8,1688.4c-85.1,0-154,68.9-154,154v241h308v-241
					C2146.8,1757.4,2077.8,1688.4,1992.8,1688.4z"/>
				<path class="st4" d="M1992.8,1680.9c-89.1,0-161.5,72.4-161.5,161.5v241c0,4.1,3.4,7.5,7.5,7.5h308c4.1,0,7.5-3.4,7.5-7.5v-241
					C2154.3,1753.4,2081.8,1680.9,1992.8,1680.9z M2139.3,2075.9h-293v-233.5c0-80.8,65.7-146.5,146.5-146.5s146.5,65.7,146.5,146.5
					V2075.9z"/>
			</g>
			<g>
				<path class="st3" d="M2149.8,2049.6h-35.2h-19.5l-15.4,67l146.3,329.8l17.7,4.9l88.9-52.4l-117.2-288.4
					C2200,2072.3,2189.1,2047.2,2149.8,2049.6z"/>
				<path class="st4" d="M2222.3,2107.7c-14.7-36.6-27.5-68.3-72.7-65.7h-54.5c-3.5,0-6.5,2.4-7.3,5.8l-15.4,67
					c-0.4,1.6-0.2,3.2,0.5,4.7l146.3,329.8c0.9,2,2.7,3.6,4.8,4.2l17.7,4.9c0.7,0.2,1.3,0.3,2,0.3c1.3,0,2.6-0.4,3.8-1l88.9-52.4
					c3.2-1.9,4.5-5.8,3.1-9.3L2222.3,2107.7z M2242.6,2443.2l-11.2-3.1l-143.9-324.3l13.5-58.7h48.8c0.1,0,0.3,0,0.4,0
					c33.2-2,42.3,16.9,58.2,56.3l114.8,282.4L2242.6,2443.2z"/>
			</g>
			<g>
				<path class="st3" d="M2272.4,2325.8l-46.4,120.6c31.5,53.4,96.3,22.3,119.5-16.6l121.6-230.4l-95.4-28.4L2272.4,2325.8z"/>
				<path class="st4" d="M2469.1,2192.1l-95.4-28.4c-3.2-1-6.7,0.3-8.5,3.1l-99.2,154.9c-2.2,3.5-1.2,8.1,2.3,10.4
					c3.5,2.2,8.1,1.2,10.4-2.3l96.2-150.1l81.2,24.2l-117.2,222.2c-14.1,23.6-42.6,41.3-66.4,41.3c0,0,0,0-0.1,0
					c-16.9,0-34.5-11.9-43-31.1c-1.7-3.8-3.8,1.5-7.3,3.6c-3.6,2.1-4.8,6.7-2.7,10.3c15.7,26.6,37.4,32.2,52.9,32.2c0,0,0.1,0,0.1,0
					c33.1,0,64.9-24.5,79.3-48.8c0.1-0.1,0.1-0.2,0.2-0.3l121.6-230.4c1-2,1.2-4.3,0.3-6.4C2473,2194.3,2471.3,2192.7,2469.1,2192.1
					z"/>
			</g>
			<g>
				<path class="st3" d="M1866.1,2049.6h-11.8c-41.6,0-76.1,26.4-77.8,61l-14.4,502.8h125.4l25.9-496.8l-15.4-67H1866.1z"/>
				<path class="st4" d="M1905.4,2047.9c-0.8-3.4-3.8-5.8-7.3-5.8h-43.7c-46,0-83.4,29.9-85.3,68.1c0,0,0,0.1,0,0.1l-14.4,502.8
					c-0.1,2,0.7,4,2.1,5.4s3.4,2.3,5.4,2.3h125.4c4,0,7.3-3.1,7.5-7.1l25.9-496.8c0-0.7,0-1.4-0.2-2.1L1905.4,2047.9z
					 M1880.4,2605.8h-110.5l14.2-495c1.5-30.1,32.3-53.8,70.3-53.8h37.7l13.8,60.1L1880.4,2605.8z"/>
			</g>
			<rect x="1866.1" y="2049.6" class="st3" width="248.5" height="164.3"/>
			<g>
				<line class="st6" x1="1866.1" y1="2049.6" x2="2139.2" y2="2049.6"/>
				<path class="st4" d="M2139.2,2042.1h-273.1c-4.1,0-7.5,3.4-7.5,7.5s3.4,7.5,7.5,7.5h273.1c4.1,0,7.5-3.4,7.5-7.5
					S2143.4,2042.1,2139.2,2042.1z"/>
			</g>
			<g>
				<polygon class="st3" points="1835.6,2158.5 1817.2,2613.3 2169.7,2613.3 2160.8,2158.5 				"/>
				<path class="st4" d="M2160.6,2151c-4.1,0.1-7.4,3.5-7.4,7.6l8.7,447.1h-337l18.1-447c0.2-4.1-3.1-7.6-7.2-7.8
					c-4.1-0.2-7.6,3.1-7.8,7.2l-18.4,454.8c-0.1,2,0.7,4,2.1,5.5c1.4,1.5,3.4,2.3,5.4,2.3h352.5c2,0,3.9-0.8,5.4-2.2
					s2.2-3.4,2.1-5.4l-8.9-454.8C2168.2,2154.2,2164.8,2151,2160.6,2151z"/>
			</g>
			<g>
				<rect x="1946.7" y="1969.9" class="st5" width="91.5" height="79.6"/>
				<path class="st4" d="M2038.2,1962.4h-91.5c-4.1,0-7.5,3.4-7.5,7.5v79.6c0,4.1,3.4,7.5,7.5,7.5h91.5c4.1,0,7.5-3.4,7.5-7.5v-79.6
					C2045.7,1965.8,2042.3,1962.4,2038.2,1962.4z M2030.7,2042.1h-76.5v-64.6h76.5V2042.1z"/>
			</g>
			<path class="st8" d="M2003,1853.5h-7.9c-4.1,0-7.5,3.4-7.5,7.5s3.4,7.5,7.5,7.5h7.9c4.1,0,7.5-3.4,7.5-7.5
				S2007.1,1853.5,2003,1853.5z"/>
			<path class="st8" d="M2072.5,1853.5h-7.9c-4.1,0-7.5,3.4-7.5,7.5s3.4,7.5,7.5,7.5h7.9c4.1,0,7.5-3.4,7.5-7.5
				S2076.6,1853.5,2072.5,1853.5z"/>
			<path class="st8" d="M2047.2,1978.7H2010c-4.1,0-7.5,3.4-7.5,7.5s3.4,7.5,7.5,7.5h37.3c4.1,0,7.5-3.4,7.5-7.5
				S2051.4,1978.7,2047.2,1978.7z"/>
			<g>
				<path class="st5" d="M1898.9,1912.7c0,54,43.7,97.7,97.7,97.7h0c54,0,97.7-43.7,97.7-97.7v-91.1l-195.4,28.1V1912.7z"/>
				<path class="st4" d="M2094.3,1814.1c-4.1,0-7.5,3.4-7.5,7.5v91.1c0,49.7-40.5,90.2-90.2,90.2s-90.2-40.5-90.2-90.2v-63
					c0-4.1-3.4-7.5-7.5-7.5s-7.5,3.4-7.5,7.5v63c0,58,47.2,105.2,105.2,105.2s105.2-47.2,105.2-105.2v-91.1
					C2101.8,1817.5,2098.4,1814.1,2094.3,1814.1z"/>
			</g>
			<polygon class="st5" points="2015,1784 2000.4,1807 1952.4,1838.3 1898.9,1849.7 2094.3,1821.6 2035,1800.2 			"/>
			<g>
				<path class="st2" d="M1902.9,1849.7L1902.9,1849.7c51.9,0,96.2-32.8,113.2-78.7l-130,77.5
					C1891.6,1849.3,1897.2,1849.7,1902.9,1849.7z"/>
				<path class="st4" d="M2018.7,1764c-3.9-1.4-8.2,0.5-9.6,4.4c-8,21.5-22.1,39.8-40.9,53.1c-19.2,13.6-41.8,20.7-65.4,20.7
					c-5.1,0-10.4-0.4-15.8-1.1c-4.1-0.6-7.9,2.3-8.5,6.4c-0.6,4.1,2.3,7.9,6.4,8.5c6,0.8,12,1.3,17.8,1.3c26.7,0,52.3-8.1,74-23.5
					c21.2-15,37.2-35.8,46.3-60.1C2024.6,1769.7,2022.6,1765.4,2018.7,1764z"/>
			</g>
			<g>
				<path class="st2" d="M2102.6,1821.2l-98.6-76.5C2015.6,1790,2056.6,1821.2,2102.6,1821.2z"/>
				<path class="st4" d="M2102.6,1813.7c-0.1,0-0.1,0-0.2,0c-43,0-80.5-29.1-91.2-70.8c-1-4-5.1-6.4-9.1-5.4c-4,1-6.4,5.1-5.4,9.1
					c12.4,48.4,55.8,82.1,105.7,82.1c0.1,0,0.1,0,0.2,0c4.1,0,7.5-3.4,7.5-7.5C2110.1,1817,2106.7,1813.7,2102.6,1813.7z"/>
			</g>
			<g>
				<g>
					<path class="st5" d="M1884.6,1898.2L1884.6,1898.2c0,11.6,9.4,21,21,21h6.4v-42h-6.4C1894,1877.2,1884.6,1886.6,1884.6,1898.2z
						"/>
					<path class="st4" d="M1905.6,1884.7h6.4c4.1,0,7.5-3.4,7.5-7.5s-3.4-7.5-7.5-7.5h-6.4c-15.7,0-28.5,12.8-28.5,28.5
						s12.8,28.5,28.5,28.5h6.4c4.1,0,7.5-3.4,7.5-7.5s-3.4-7.5-7.5-7.5h-6.4c-7.4,0-13.5-6.1-13.5-13.5S1898.2,1884.7,1905.6,1884.7
						z"/>
				</g>
				<path class="st4" d="M2027.7,1860.7c-1.3-3.9-5.5-6.1-9.5-4.8c-3.9,1.3-6.1,5.5-4.8,9.5l16.5,50.3c0.8,2.5,0,4.9-0.6,5.6h-8.7
					c-4.1,0-7.5,3.4-7.5,7.5s3.4,7.5,7.5,7.5h9.2c4.5,0,8.8-2.3,11.7-6.3c3.8-5.2,4.8-12.5,2.7-19L2027.7,1860.7z"/>
			</g>
			<path class="st4" d="M2022.1,1954.3c-4.2,1.5-9.1,2.4-14,2.4c-6.6,0-13-1.5-18-4.1c-3.6-2-8.2-0.6-10.2,3.1
				c-2,3.7-0.6,8.2,3.1,10.2c7.2,3.9,15.9,5.9,25,5.9c6.7,0,13.3-1.1,19.2-3.3c3.9-1.4,5.9-5.7,4.5-9.6
				C2030.3,1954.9,2026,1952.9,2022.1,1954.3z"/>
			<g>
				<g>
					<path class="st4" d="M1970.5,1871.3c-5.4,0-9.8,4.4-9.8,9.8c0,5.4,4.4,9.8,9.8,9.8s9.8-4.4,9.8-9.8
						C1980.3,1875.7,1975.9,1871.3,1970.5,1871.3z"/>
					<path class="st4" d="M2058.9,1871.3c-5.4,0-9.8,4.4-9.8,9.8c0,5.4,4.4,9.8,9.8,9.8c5.4,0,9.8-4.4,9.8-9.8
						C2068.7,1875.7,2064.3,1871.3,2058.9,1871.3z"/>
				</g>
				<g>
					<path class="st2" d="M1988.8,1851.6c-19.3-8.2-40.4-0.4-41.2-0.1c-3.9,1.5-5.8,5.8-4.4,9.7c1.1,3,4,4.8,7,4.8
						c0.9,0,1.8-0.2,2.7-0.5c0.2-0.1,16.4-5.9,30.1-0.1c3.8,1.6,8.2-0.2,9.8-4S1992.6,1853.3,1988.8,1851.6z"/>
					<path class="st2" d="M2076.7,1852.1c-0.8-0.5-20.4-11.9-42.9-0.2c-3.7,1.9-5.1,6.4-3.2,10.1c1.3,2.6,4,4.1,6.7,4.1
						c1.2,0,2.3-0.3,3.4-0.8c14.9-7.7,27.9-0.5,28.4-0.2c3.6,2.1,8.2,1,10.3-2.6C2081.5,1858.8,2080.3,1854.2,2076.7,1852.1z"/>
				</g>
			</g>
			<g>
				<g>
					<path class="st5" d="M1373.3,2035.2v-72.1h-56.1h-56.1v72.1c0,29.3-30,53-64.8,53h120.9h119.1
						C1401.5,2088.2,1373.3,2064.5,1373.3,2035.2z"/>
					<path class="st4" d="M1436.3,2080.7c-30.6,0-55.5-20.4-55.5-45.5v-72.1c0-4.1-3.4-7.5-7.5-7.5h-112.2c-4.1,0-7.5,3.4-7.5,7.5
						v72.1c0,24.7-26.2,45.5-57.3,45.5c-4.1,0-7.5,3.4-7.5,7.5s3.4,7.5,7.5,7.5h240c4.1,0,7.5-3.4,7.5-7.5
						S1440.5,2080.7,1436.3,2080.7z M1243.6,2080.7c1-0.7,1.9-1.4,2.9-2.2c14.3-11.6,22.1-26.9,22.1-43.3v-64.6h97.2v64.6
						c0,18.1,9.3,34.4,24.1,45.5H1243.6z"/>
				</g>
				<g>
					<path class="st6" d="M1402.4,1651.1h-169.9c-30.3,0-54.9,24.6-54.9,54.9V1877h279.8V1706
						C1457.3,1675.7,1432.7,1651.1,1402.4,1651.1z"/>
					<path class="st4" d="M1402.4,1643.6h-169.9c-34.4,0-62.4,28-62.4,62.4V1877c0,4.1,3.4,7.5,7.5,7.5h279.8c4.1,0,7.5-3.4,7.5-7.5
						V1706C1464.8,1671.6,1436.8,1643.6,1402.4,1643.6z M1449.8,1869.5H1185V1706c0-26.1,21.3-47.4,47.4-47.4h169.9
						c26.1,0,47.4,21.3,47.4,47.4V1869.5z"/>
				</g>
				<g>
					<g>
						<g>
							<path class="st3" d="M1457.8,2062.4h-283c-42.3,0-78.9,24.3-96.6,59.7c-7.2,14.5-11.3,30.9-11.3,48.2v443h472.6l26.2-443
								C1565.7,2110.7,1517.4,2062.4,1457.8,2062.4z"/>
							<path class="st4" d="M1457.8,2054.9h-283c-44,0-83.6,24.5-103.3,63.9c-8,16.1-12.1,33.4-12.1,51.5v443c0,4.1,3.4,7.5,7.5,7.5
								h472.6c4,0,7.3-3.1,7.5-7.1l26.2-443c0-0.1,0-0.3,0-0.4C1573.2,2106.7,1521.5,2054.9,1457.8,2054.9z M1532.5,2605.8h-458
								v-435.5c0-15.8,3.5-30.8,10.5-44.8c17.1-34.3,51.6-55.6,89.9-55.6h283c55.3,0,100.3,44.9,100.4,100.2L1532.5,2605.8z"/>
						</g>
					</g>
					<g>
						<polygon class="st3" points="1460.3,2244.3 1460.3,2613.3 1578.3,2613.3 1565.7,2170.3 						"/>
						<path class="st4" d="M1565.5,2162.8c-4.1,0.1-7.4,3.6-7.3,7.7l12.3,435.3h-102.7v-361.4c0-4.1-3.4-7.5-7.5-7.5
							s-7.5,3.4-7.5,7.5v368.9c0,4.1,3.4,7.5,7.5,7.5h117.9c2,0,4-0.8,5.4-2.3c1.4-1.5,2.2-3.4,2.1-5.4l-12.5-443
							C1573.1,2166,1569.6,2162.7,1565.5,2162.8z"/>
					</g>
					<g>
						<polygon class="st3" points="1054.4,2613.3 1172.3,2613.3 1172.3,2244.3 1066.9,2170.3 						"/>
						<path class="st4" d="M1172.3,2236.8c-4.1,0-7.5,3.4-7.5,7.5v361.4h-102.7l12.3-435.3c0.1-4.1-3.1-7.6-7.3-7.7
							c-4.1-0.1-7.6,3.1-7.7,7.3l-12.5,443c-0.1,2,0.7,4,2.1,5.4c1.4,1.5,3.4,2.3,5.4,2.3h117.9c4.1,0,7.5-3.4,7.5-7.5v-368.9
							C1179.8,2240.2,1176.5,2236.8,1172.3,2236.8z"/>
					</g>
				</g>
				<g>
					<g>
						<path class="st5" d="M1225.9,1806.5h-35.3c-14.1,0-27.5,11.5-25.5,26.3l6.9,41.3c2.2,15.3,11.4,26.3,25.5,26.3h35.3
							c1.5,0,2.8-1.3,2.8-2.8l-6.9-88.2C1228.6,1807.7,1227.4,1806.5,1225.9,1806.5z"/>
						<path class="st4" d="M1236.1,1808.9c-0.2-5.5-4.7-10-10.2-10h-35.3c-9.8,0-19.4,4.3-25.8,11.6c-5.7,6.5-8.3,14.8-7.1,23.2
							c0,0.1,0,0.2,0,0.2l6.9,41.2c2.9,19.8,15.8,32.6,32.9,32.6h35.3c5.7,0,10.3-4.6,10.3-10.3c0-0.2,0-0.4,0-0.6L1236.1,1808.9z
							 M1197.4,1892.8c-14.1,0-17.4-15.2-18.1-19.9c0-0.1,0-0.1,0-0.2l-6.8-41.1c-0.6-5.2,1.6-8.9,3.6-11.2c3.5-4,9.1-6.5,14.5-6.5
							h30.9l6.1,78.9H1197.4z"/>
					</g>
					<g>
						<path class="st5" d="M1444.2,1806.5h-35.3c-1.5,0-2.8,1.3-2.8,2.8l-6.9,88.2c0,1.6,1.2,2.8,2.8,2.8h35.3
							c14.1,0,23.3-11,25.5-26.3l6.9-41.3C1471.7,1817.9,1458.3,1806.5,1444.2,1806.5z"/>
						<path class="st4" d="M1444.2,1799h-35.3c-5.5,0-10,4.4-10.2,10l-6.9,88c0,0.2,0,0.4,0,0.6c0,5.7,4.6,10.3,10.3,10.3h35.3
							c17.1,0,30-12.8,32.9-32.7l6.9-41.2c0-0.1,0-0.2,0-0.2c1.1-8.4-1.4-16.7-7.1-23.2C1463.7,1803.3,1454,1799,1444.2,1799z
							 M1462.3,1831.7l-6.8,41.1c0,0.1,0,0.1,0,0.2c-0.7,4.7-4,19.9-18.1,19.9h-30.2l6.1-78.9h30.9c5.5,0,11,2.5,14.5,6.5
							C1460.8,1822.7,1463,1826.5,1462.3,1831.7z"/>
					</g>
				</g>
				<g>
					<path class="st5" d="M1381,1706.6h-79.7h-47.5c-29.9,0-54.1,24.2-54.1,54.1v123c0,71.9,51.9,137,115.4,137h4.6
						c63.5,0,115.4-65.1,115.4-137v-123v0C1435.1,1730.8,1410.9,1706.6,1381,1706.6z"/>
					<path class="st4" d="M1381,1699.1h-127.2c-34,0-61.6,27.6-61.6,61.6v123c0,36.3,13,72.9,35.6,100.2
						c23.6,28.5,54.6,44.2,87.3,44.2h4.6c32.6,0,63.6-15.7,87.3-44.2c22.6-27.3,35.6-63.9,35.6-100.2v-123
						C1442.6,1726.7,1415,1699.1,1381,1699.1z M1427.6,1883.6c0,32.9-11.7,66-32.2,90.6c-20.7,25-47.6,38.8-75.7,38.8h-4.6
						c-28.1,0-55-13.8-75.7-38.8c-20.4-24.7-32.2-57.7-32.2-90.6v-123c0-25.7,20.9-46.6,46.6-46.6H1381c25.7,0,46.6,20.9,46.6,46.6
						V1883.6z"/>
				</g>
				<path class="st4" d="M1352.5,1951.6c-8.1,4.2-16.5,6.4-25.1,6.4h-3c-9.7,0-19.2-2.7-28.1-8c-3.6-2.1-8.2-1-10.3,2.6
					s-1,8.2,2.6,10.3c11.3,6.7,23.3,10.2,35.8,10.2h3c11.1,0,21.9-2.7,32.1-8.1c3.7-1.9,5.1-6.5,3.2-10.1
					C1360.7,1951.1,1356.2,1949.7,1352.5,1951.6z"/>
				<g>
					<path class="st4" d="M1276.6,1848.9c-6.1,0-11,5-11,11l0,0c0,6.1,5,11,11,11s11-5,11-11l0,0
						C1287.6,1853.8,1282.7,1848.9,1276.6,1848.9z"/>
					<path class="st4" d="M1397.2,1848.9c-6.1,0-11,5-11,11l0,0c0,6.1,5,11,11,11s11-5,11-11l0,0
						C1408.2,1853.8,1403.3,1848.9,1397.2,1848.9z"/>
				</g>
				<path class="st4" d="M1340.9,1818.1c-4.1,0-7.5,3.4-7.5,7.5v81c0,5-4,9-9,9s-9-4-9-9c0-4.1-3.4-7.5-7.5-7.5s-7.5,3.4-7.5,7.5
					c0,13.2,10.8,24,24,24s24-10.8,24-24v-81C1348.4,1821.4,1345.1,1818.1,1340.9,1818.1z"/>
				<g>
					<path class="st2" d="M1291.8,1807.9h-40.1c-4.1,0-7.5,3.4-7.5,7.5s3.4,7.5,7.5,7.5h40.1c4.1,0,7.5-3.4,7.5-7.5
						S1296,1807.9,1291.8,1807.9z"/>
					<path class="st2" d="M1418.1,1807.9H1378c-4.1,0-7.5,3.4-7.5,7.5s3.4,7.5,7.5,7.5h40.1c4.1,0,7.5-3.4,7.5-7.5
						S1422.2,1807.9,1418.1,1807.9z"/>
				</g>
				<g>
					<path class="st6" d="M1386.2,1633.9h-140.3c0,0-5.6,72.7,55.3,72.7h63.1c41.7,0,70.9,33.4,70.9,54.1l22.2,0.5V1706
						C1457.6,1661,1416.5,1633.9,1386.2,1633.9z"/>
					<path class="st4" d="M1386.2,1626.4h-140.3c-3.9,0-7.2,3-7.5,6.9c-0.1,1.6-2.8,39.7,18.9,63.1c10.8,11.7,25.6,17.6,43.8,17.6
						h63.1c22.8,0,38.7,10.9,46.1,17.4c11.9,10.4,17.2,22.2,17.2,29.2c0,4.1,3.4,7.5,7.5,7.5s7.5-3.4,7.5-7.5
						c0-12.9-8.6-28.4-22.4-40.5c-15.6-13.6-35.5-21.1-56-21.1h-63.1c-13.9,0-24.9-4.3-32.8-12.8c-12.4-13.4-14.7-34.2-15.1-44.9
						h132.9c15.2,0,33,8,45.3,20.4c8.4,8.5,18.4,23,18.3,44.3v55.2c0,4.1,3.4,7.5,7.5,7.5s7.5-3.4,7.5-7.5v-55.1
						c0.2-26.3-12.2-44.4-22.6-54.9C1426.9,1635.9,1405.5,1626.4,1386.2,1626.4z"/>
				</g>
			</g>
		</g>
		<g>
			<g>
				<path class="st5" d="M1055.1,2573.2H1023v-85.7H860.7v85.7h-32.1c-22.2,0-40.1,18-40.1,40.1h306.7
					C1095.2,2591.1,1077.2,2573.2,1055.1,2573.2z"/>
				<path class="st4" d="M1055.1,2565.7h-24.6v-78.2c0-4.1-3.4-7.5-7.5-7.5H860.7c-4.1,0-7.5,3.4-7.5,7.5v78.2h-24.6
					c-26.3,0-47.6,21.4-47.6,47.6c0,4.1,3.4,7.5,7.5,7.5h306.7c4.1,0,7.5-3.4,7.5-7.5C1102.7,2587,1081.3,2565.7,1055.1,2565.7z
					 M796.9,2605.8c3.4-14.4,16.3-25.1,31.7-25.1h32.1c4.1,0,7.5-3.4,7.5-7.5V2495h147.3v78.2c0,4.1,3.4,7.5,7.5,7.5h32.1
					c15.4,0,28.4,10.7,31.7,25.1H796.9z"/>
			</g>
			<g>
				<path class="st5" d="M1150.8,2147.9H732.9c-23.4,0-42.3,18.9-42.3,42.3v293.3c0,23.4,18.9,42.3,42.3,42.3h417.9
					c23.4,0,42.3-18.9,42.3-42.3v-293.3C1193.1,2166.8,1174.1,2147.9,1150.8,2147.9z"/>
				<path class="st4" d="M1150.8,2140.4H732.9c-27.5,0-49.8,22.3-49.8,49.8v293.3c0,27.5,22.3,49.8,49.8,49.8h417.9
					c27.5,0,49.8-22.3,49.8-49.8v-293.3C1200.6,2162.7,1178.2,2140.4,1150.8,2140.4z M1185.6,2483.5c0,19.2-15.6,34.8-34.8,34.8
					H732.9c-19.2,0-34.8-15.6-34.8-34.8v-293.3c0-19.2,15.6-34.8,34.8-34.8h417.9c19.2,0,34.8,15.6,34.8,34.8V2483.5z"/>
			</g>
		</g>
	</g>
</g>
</svg>
